<svg width="15" height="28" viewBox="0 0 15 28" fill="none" xmlns="http://www.w3.org/2000/svg">
<g clip-path="url(#clip0_4138_1919)">
<path d="M14.0625 13.88C14.0625 14.7277 13.9167 15.5297 13.625 16.2863C13.3333 17.0428 12.93 17.7172 12.415 18.3097C11.9001 18.9021 11.2962 19.3989 10.6035 19.7999C9.90169 20.1919 9.14974 20.4516 8.34766 20.5792V15.8351H9.91992L10.2207 13.88H8.34766V12.6085C8.34766 12.3351 8.42513 12.089 8.58008 11.8702C8.73503 11.6515 9.02214 11.5421 9.44141 11.5421H10.3027V9.87415C10.3027 9.87415 10.1432 9.85364 9.82422 9.81262C9.50521 9.77161 9.15885 9.7511 8.78516 9.7511C8.01042 9.7511 7.38835 9.97668 6.91895 10.4279C6.44954 10.879 6.21484 11.533 6.21484 12.3898V13.88H4.49219V15.8351H6.21484V20.5792C5.41276 20.4516 4.66081 20.1919 3.95898 19.7999C3.26628 19.3989 2.66243 18.9021 2.14746 18.3097C1.63249 17.7172 1.22917 17.0428 0.9375 16.2863C0.645833 15.5297 0.5 14.7277 0.5 13.88C0.5 12.9412 0.677734 12.0616 1.0332 11.2413C1.38867 10.421 1.87402 9.70325 2.48926 9.08801C3.10449 8.47278 3.82227 7.98743 4.64258 7.63196C5.46289 7.27649 6.34245 7.09875 7.28125 7.09875C8.22005 7.09875 9.09961 7.27649 9.91992 7.63196C10.7402 7.98743 11.458 8.47278 12.0732 9.08801C12.6885 9.70325 13.1738 10.421 13.5293 11.2413C13.8848 12.0616 14.0625 12.9412 14.0625 13.88Z" fill="white"/>
</g>
<defs>
<clipPath id="clip0_4138_1919">
<rect width="14" height="14" fill="white" transform="matrix(1 0 0 -1 0.5 20.88)"/>
</clipPath>
</defs>
</svg>
