<svg width="11" height="28" viewBox="0 0 11 28" fill="none" xmlns="http://www.w3.org/2000/svg">
<g clip-path="url(#clip0_4138_1922)">
<path d="M6.07812 7.05774C6.72526 7.05774 7.34505 7.16256 7.9375 7.37219C8.52995 7.59094 9.05176 7.89628 9.50293 8.28821C9.9541 8.68013 10.3164 9.14954 10.5898 9.69641C10.8633 10.2524 11 10.8676 11 11.5421C11 12.1801 10.918 12.8182 10.7539 13.4562C10.5898 14.1033 10.3346 14.6821 9.98828 15.1925C9.64193 15.7029 9.20443 16.1222 8.67578 16.4503C8.14714 16.7693 7.51823 16.9288 6.78906 16.9288C6.44271 16.9288 6.08268 16.8445 5.70898 16.6759C5.33529 16.5073 5.06641 16.2635 4.90234 15.9445C4.58333 17.1749 4.34863 18.034 4.19824 18.5216C4.04785 19.0092 3.63086 19.7225 2.94727 20.6613C2.87435 20.6886 2.83561 20.7023 2.83105 20.7023C2.8265 20.7023 2.80143 20.6749 2.75586 20.6202C2.72852 20.365 2.70117 20.1098 2.67383 19.8546C2.64648 19.5994 2.63281 19.3442 2.63281 19.089C2.63281 18.6697 2.67383 18.2094 2.75586 17.7081C2.83789 17.2159 2.94043 16.7146 3.06348 16.2042C3.18652 15.6938 3.31185 15.1971 3.43945 14.714C3.57617 14.2218 3.6901 13.7706 3.78125 13.3605C3.68099 13.1508 3.61263 12.9253 3.57617 12.6837C3.53971 12.4422 3.52148 12.2075 3.52148 11.9796C3.52148 11.4327 3.65365 11.0044 3.91797 10.6945C4.18229 10.3846 4.47624 10.1954 4.7998 10.1271C5.12337 10.0587 5.41732 10.1202 5.68164 10.3116C5.95508 10.5031 6.0918 10.8221 6.0918 11.2687C6.0918 11.8064 5.97103 12.3282 5.72949 12.8341C5.48796 13.34 5.36719 13.8527 5.36719 14.3722C5.36719 14.7277 5.49251 15.017 5.74316 15.2404C5.99381 15.4637 6.28776 15.5753 6.625 15.5753C7.09896 15.5753 7.49544 15.4249 7.81445 15.1241C8.12435 14.8234 8.375 14.4588 8.56641 14.0304C8.75781 13.602 8.89453 13.1463 8.97656 12.6632C9.05859 12.1801 9.09961 11.7563 9.09961 11.3917C9.09961 10.9087 9.01758 10.4803 8.85352 10.1066C8.68945 9.73287 8.46387 9.41842 8.17676 9.16321C7.88965 8.908 7.54557 8.71659 7.14453 8.58899C6.7526 8.46138 6.32422 8.39758 5.85938 8.39758C5.3125 8.39758 4.80664 8.48873 4.3418 8.67102C3.87695 8.85331 3.47135 9.1108 3.125 9.44348C2.77865 9.77616 2.50977 10.1749 2.31836 10.6398C2.11784 11.0955 2.01758 11.6014 2.01758 12.1573C2.01758 12.686 2.12467 13.0939 2.33887 13.381C2.55306 13.6681 2.66016 13.8754 2.66016 14.0031C2.66016 14.1124 2.6237 14.3016 2.55078 14.5704C2.47786 14.8393 2.37305 14.9738 2.23633 14.9738C1.9082 14.9738 1.53678 14.7117 1.12207 14.1876C0.707357 13.6635 0.5 12.9184 0.5 11.9523C0.5 11.1958 0.659505 10.5167 0.978516 9.91516C1.29753 9.30448 1.7168 8.78951 2.23633 8.37024C2.75586 7.95097 3.35286 7.6274 4.02734 7.39954C4.69271 7.17167 5.3763 7.05774 6.07812 7.05774Z" fill="white"/>
</g>
<defs>
<clipPath id="clip0_4138_1922">
<rect width="10.5" height="14" fill="white" transform="matrix(1 0 0 -1 0.5 20.88)"/>
</clipPath>
</defs>
</svg>
