<svg width="14" height="28" viewBox="0 0 14 28" fill="none" xmlns="http://www.w3.org/2000/svg">
<g clip-path="url(#clip0_4138_1925)">
<path d="M6.125 10.7355C6.5625 10.7355 6.97266 10.8175 7.35547 10.9816C7.73828 11.1456 8.07096 11.3689 8.35352 11.6515C8.63607 11.934 8.85938 12.2667 9.02344 12.6495C9.1875 13.0323 9.26953 13.4425 9.26953 13.88C9.26953 14.3084 9.1875 14.714 9.02344 15.0968C8.85938 15.4796 8.63607 15.8146 8.35352 16.1017C8.07096 16.3888 7.73828 16.6144 7.35547 16.7784C6.97266 16.9425 6.5625 17.0245 6.125 17.0245C5.69661 17.0245 5.29102 16.9425 4.9082 16.7784C4.52539 16.6144 4.19043 16.3888 3.90332 16.1017C3.61621 15.8146 3.39062 15.4796 3.22656 15.0968C3.0625 14.714 2.98047 14.3084 2.98047 13.88C2.98047 13.4425 3.0625 13.0323 3.22656 12.6495C3.39062 12.2667 3.61621 11.934 3.90332 11.6515C4.19043 11.3689 4.52539 11.1456 4.9082 10.9816C5.29102 10.8175 5.69661 10.7355 6.125 10.7355ZM6.125 15.9171C6.6901 15.9171 7.17318 15.7189 7.57422 15.3224C7.97526 14.9259 8.17578 14.4451 8.17578 13.88C8.17578 13.3149 7.97526 12.8318 7.57422 12.4308C7.17318 12.0297 6.6901 11.8292 6.125 11.8292C5.5599 11.8292 5.0791 12.0297 4.68262 12.4308C4.28613 12.8318 4.08789 13.3149 4.08789 13.88C4.08789 14.4451 4.28841 14.9259 4.68945 15.3224C5.09049 15.7189 5.56901 15.9171 6.125 15.9171ZM10.1309 10.6124C10.1309 10.8129 10.0602 10.9838 9.91895 11.1251C9.77767 11.2664 9.60221 11.337 9.39258 11.337C9.19206 11.337 9.02116 11.2664 8.87988 11.1251C8.73861 10.9838 8.66797 10.8129 8.66797 10.6124C8.66797 10.4028 8.73861 10.2273 8.87988 10.0861C9.02116 9.94478 9.19206 9.87415 9.39258 9.87415C9.60221 9.87415 9.77767 9.94478 9.91895 10.0861C10.0602 10.2273 10.1309 10.4028 10.1309 10.6124ZM12.209 11.3507C12.2272 11.6059 12.2409 11.9659 12.25 12.4308C12.25 12.8865 12.25 13.3673 12.25 13.8732C12.25 14.379 12.25 14.8644 12.25 15.3292C12.2409 15.7941 12.2272 16.1541 12.209 16.4093C12.1908 16.8924 12.111 17.3504 11.9697 17.7833C11.8285 18.2163 11.5801 18.6105 11.2246 18.9659C10.8691 19.3305 10.4749 19.5812 10.042 19.7179C9.60905 19.8546 9.14648 19.9366 8.6543 19.964C8.39909 19.9731 8.03906 19.9822 7.57422 19.9913C7.11849 20.0004 6.6377 20.005 6.13184 20.005C5.62598 20.005 5.14062 20.0004 4.67578 19.9913C4.21094 19.9822 3.85091 19.9731 3.5957 19.964C3.10352 19.9366 2.64323 19.8546 2.21484 19.7179C1.78646 19.5812 1.38997 19.3305 1.02539 18.9659C0.669922 18.6105 0.423828 18.2163 0.287109 17.7833C0.150391 17.3504 0.0683594 16.8924 0.0410156 16.4093C0.0227865 16.1541 0.0136719 15.7941 0.0136719 15.3292C0.00455729 14.8644 0 14.379 0 13.8732C0 13.3673 0.00455729 12.882 0.0136719 12.4171C0.0136719 11.9614 0.0227865 11.6059 0.0410156 11.3507C0.0683594 10.8585 0.150391 10.396 0.287109 9.96301C0.423828 9.53007 0.669922 9.13586 1.02539 8.7804C1.38997 8.42493 1.78874 8.17655 2.22168 8.03528C2.65462 7.894 3.11263 7.81425 3.5957 7.79602C3.85091 7.77779 4.21094 7.76412 4.67578 7.755C5.14062 7.755 5.62598 7.755 6.13184 7.755C6.6377 7.755 7.11849 7.755 7.57422 7.755C8.03906 7.76412 8.39909 7.77779 8.6543 7.79602C9.14648 7.82336 9.60905 7.9054 10.042 8.04211C10.4749 8.17883 10.8691 8.42493 11.2246 8.7804C11.5801 9.14498 11.8285 9.54146 11.9697 9.96985C12.111 10.3982 12.1908 10.8585 12.209 11.3507ZM10.9102 17.4894C10.9831 17.2889 11.0378 17.0291 11.0742 16.7101C11.1107 16.3911 11.1357 16.0584 11.1494 15.712C11.1631 15.3657 11.1654 15.0284 11.1562 14.7003C11.1562 14.3722 11.1562 14.0988 11.1562 13.88C11.1562 13.6521 11.1562 13.3741 11.1562 13.046C11.1654 12.7179 11.1631 12.3807 11.1494 12.0343C11.1357 11.6879 11.1107 11.3598 11.0742 11.0499C11.0378 10.7309 10.9831 10.4712 10.9102 10.2706C10.8008 9.99719 10.6458 9.76021 10.4453 9.55969C10.2448 9.35917 10.0078 9.20422 9.73438 9.09485C9.53385 9.02193 9.27409 8.96724 8.95508 8.93079C8.64518 8.89433 8.31706 8.86926 7.9707 8.85559C7.62435 8.84192 7.28711 8.83964 6.95898 8.84875C6.63086 8.84875 6.35286 8.84875 6.125 8.84875C5.90625 8.84875 5.63281 8.84875 5.30469 8.84875C4.97656 8.83964 4.63932 8.84192 4.29297 8.85559C3.94661 8.86926 3.61393 8.89433 3.29492 8.93079C2.97591 8.96724 2.71615 9.02193 2.51562 9.09485C2.24219 9.20422 2.00521 9.35917 1.80469 9.55969C1.60417 9.76021 1.45378 9.99719 1.35352 10.2706C1.27148 10.4712 1.21224 10.7309 1.17578 11.0499C1.13932 11.3598 1.11654 11.6879 1.10742 12.0343C1.09831 12.3807 1.09375 12.7179 1.09375 13.046C1.10286 13.3741 1.10742 13.6521 1.10742 13.88C1.10742 14.0988 1.10286 14.3722 1.09375 14.7003C1.09375 15.0284 1.09831 15.3657 1.10742 15.712C1.11654 16.0584 1.13932 16.3911 1.17578 16.7101C1.21224 17.0291 1.27148 17.2889 1.35352 17.4894C1.46289 17.7628 1.61784 17.9975 1.81836 18.1935C2.01888 18.3894 2.2513 18.5421 2.51562 18.6515C2.71615 18.7335 2.97591 18.7928 3.29492 18.8292C3.61393 18.8657 3.94661 18.8885 4.29297 18.8976C4.63932 18.9067 4.97656 18.9113 5.30469 18.9113C5.63281 18.9021 5.90625 18.8976 6.125 18.8976C6.35286 18.8976 6.63086 18.9021 6.95898 18.9113C7.28711 18.9113 7.62435 18.9067 7.9707 18.8976C8.31706 18.8885 8.64518 18.8657 8.95508 18.8292C9.27409 18.7928 9.53385 18.7335 9.73438 18.6515C10.0078 18.5421 10.2448 18.3872 10.4453 18.1866C10.6458 17.9861 10.8008 17.7537 10.9102 17.4894Z" fill="white"/>
</g>
<defs>
<clipPath id="clip0_4138_1925">
<rect width="14" height="14" fill="white" transform="matrix(1 0 0 -1 0 20.88)"/>
</clipPath>
</defs>
</svg>
