<svg width="15" height="28" viewBox="0 0 15 28" fill="none" xmlns="http://www.w3.org/2000/svg">
<g clip-path="url(#clip0_4138_1916)">
<path d="M13.0645 11.0226C13.0645 11.0864 13.0645 11.1502 13.0645 11.214C13.0645 11.2778 13.0645 11.3416 13.0645 11.4054C13.0645 12.3533 12.8867 13.3103 12.5312 14.2765C12.1758 15.2426 11.654 16.1176 10.9658 16.9015C10.2777 17.6853 9.42318 18.3279 8.40234 18.8292C7.39062 19.3214 6.22396 19.5675 4.90234 19.5675C4.5013 19.5675 4.10482 19.5402 3.71289 19.4855C3.32096 19.4217 2.94043 19.3351 2.57129 19.2257C2.20215 19.1163 1.8444 18.9842 1.49805 18.8292C1.15169 18.6652 0.81901 18.4829 0.5 18.2823C0.61849 18.2915 0.734701 18.2983 0.848633 18.3029C0.962565 18.3074 1.07878 18.3097 1.19727 18.3097C1.86263 18.3097 2.49837 18.2026 3.10449 17.9884C3.71061 17.7742 4.25977 17.4757 4.75195 17.0929C4.12305 17.0747 3.56478 16.8787 3.07715 16.505C2.58952 16.1313 2.25456 15.6619 2.07227 15.0968C2.16341 15.1059 2.25228 15.115 2.33887 15.1241C2.42546 15.1333 2.51888 15.1378 2.61914 15.1378C2.74674 15.1378 2.87435 15.131 3.00195 15.1173C3.12956 15.1036 3.2526 15.0786 3.37109 15.0421C2.71484 14.9054 2.16797 14.5773 1.73047 14.0577C1.29297 13.5382 1.07422 12.9275 1.07422 12.2257V12.1984C1.26562 12.2986 1.4707 12.3807 1.68945 12.4445C1.9082 12.5083 2.13151 12.5447 2.35938 12.5538C1.97656 12.2986 1.66895 11.9614 1.43652 11.5421C1.2041 11.1228 1.08789 10.6626 1.08789 10.1613C1.08789 9.89693 1.12207 9.644 1.19043 9.40247C1.25879 9.16093 1.35221 8.93534 1.4707 8.72571C1.82617 9.15409 2.22266 9.54602 2.66016 9.90149C3.09766 10.257 3.56706 10.5646 4.06836 10.8243C4.56966 11.0841 5.10286 11.2915 5.66797 11.4464C6.22396 11.6014 6.79818 11.6925 7.39062 11.7198C7.3724 11.6105 7.35645 11.5011 7.34277 11.3917C7.3291 11.2823 7.32227 11.173 7.32227 11.0636C7.32227 10.6717 7.39518 10.298 7.54102 9.9425C7.69596 9.59615 7.90332 9.29309 8.16309 9.03333C8.42285 8.77356 8.72591 8.57076 9.07227 8.42493C9.41862 8.26998 9.79232 8.1925 10.1934 8.1925C10.6035 8.1925 10.9886 8.27454 11.3486 8.4386C11.7087 8.60266 12.0208 8.82141 12.2852 9.09485C12.6133 9.04016 12.93 8.95357 13.2354 8.83508C13.5407 8.71659 13.8301 8.57532 14.1035 8.41125C14.0033 8.73938 13.8438 9.04016 13.625 9.3136C13.4062 9.58704 13.1465 9.81034 12.8457 9.98352C13.1374 9.95618 13.4222 9.90377 13.7002 9.82629C13.9782 9.74882 14.2448 9.6554 14.5 9.54602C14.3086 9.82857 14.0898 10.0952 13.8438 10.3458C13.5977 10.5965 13.3379 10.8221 13.0645 11.0226Z" fill="white"/>
</g>
<defs>
<clipPath id="clip0_4138_1916">
<rect width="14" height="14" fill="white" transform="matrix(1 0 0 -1 0.5 20.88)"/>
</clipPath>
</defs>
</svg>
