<svg width="14" height="21" viewBox="0 0 14 21" fill="none" xmlns="http://www.w3.org/2000/svg">
<g clip-path="url(#clip0_4137_1555)">
<path d="M7.045 4.455C7.91649 4.455 8.73297 4.61999 9.49447 4.94997C10.256 5.27995 10.9223 5.7305 11.4934 6.30162C12.0645 6.87274 12.515 7.53904 12.845 8.30053C13.175 9.06202 13.34 9.87851 13.34 10.75C13.34 11.6215 13.175 12.438 12.845 13.1995C12.515 13.961 12.0645 14.6273 11.4934 15.1984C10.9223 15.7695 10.256 16.22 9.49447 16.55C8.73297 16.88 7.91649 17.045 7.045 17.045C6.17351 17.045 5.35703 16.88 4.59553 16.55C3.83404 16.22 3.16774 15.7695 2.59662 15.1984C2.0255 14.6273 1.57495 13.961 1.24497 13.1995C0.91499 12.438 0.75 11.6215 0.75 10.75C0.75 9.87851 0.91499 9.06202 1.24497 8.30053C1.57495 7.53904 2.0255 6.87274 2.59662 6.30162C3.16774 5.7305 3.83404 5.27995 4.59553 4.94997C5.35703 4.61999 6.17351 4.455 7.045 4.455ZM7.045 6.89177C6.42735 6.89177 5.90065 7.10964 5.4649 7.54539C5.02916 7.98113 4.81129 8.50783 4.81129 9.12548C4.81129 9.74314 5.02916 10.2698 5.4649 10.7056C5.90065 11.1413 6.42735 11.3592 7.045 11.3592C7.66265 11.3592 8.18935 11.1413 8.6251 10.7056C9.06084 10.2698 9.27871 9.74314 9.27871 9.12548C9.27871 8.50783 9.06084 7.98113 8.6251 7.54539C8.18935 7.10964 7.66265 6.89177 7.045 6.89177ZM7.045 15.6235C7.41728 15.6235 7.77688 15.5812 8.12378 15.4966C8.47914 15.4205 8.81335 15.3063 9.12641 15.154C9.43947 15.0017 9.73561 14.8197 10.0148 14.6082C10.294 14.3967 10.5436 14.1598 10.7636 13.8975C10.5267 13.4491 10.1862 13.0831 9.74195 12.7997C9.29775 12.5162 8.80489 12.3745 8.26339 12.3745C8.22954 12.3745 8.19781 12.3766 8.1682 12.3809C8.13859 12.3851 8.11109 12.3914 8.08571 12.3999C7.91649 12.4507 7.74515 12.493 7.5717 12.5268C7.39825 12.5607 7.22268 12.5776 7.045 12.5776C6.86732 12.5776 6.69175 12.5607 6.5183 12.5268C6.34485 12.493 6.17351 12.4507 6.00429 12.3999C5.97891 12.3914 5.95141 12.3851 5.9218 12.3809C5.89219 12.3766 5.86046 12.3745 5.82661 12.3745C5.28511 12.3745 4.79225 12.5162 4.34805 12.7997C3.90385 13.0831 3.56329 13.4491 3.32638 13.8975C3.54637 14.1598 3.79597 14.3967 4.07518 14.6082C4.3544 14.8197 4.65053 15.0017 4.96359 15.154C5.27665 15.3063 5.61086 15.4205 5.96622 15.4966C6.31312 15.5812 6.67272 15.6235 7.045 15.6235Z" fill="#EEC044"/>
</g>
<defs>
<clipPath id="clip0_4137_1555">
<rect width="12.59" height="20" fill="white" transform="matrix(1 0 0 -1 0.75 20.75)"/>
</clipPath>
</defs>
</svg>
