<svg width="16" height="21" viewBox="0 0 16 21" fill="none" xmlns="http://www.w3.org/2000/svg">
<g clip-path="url(#clip0_4137_1559)">
<path d="M11.3694 8.62444C11.3694 9.18322 11.2297 9.71237 10.9503 10.2119C10.6794 10.7029 10.3048 11.1326 9.82641 11.5009C9.34805 11.8692 8.78715 12.1592 8.1437 12.3708C7.50026 12.5825 6.81447 12.6883 6.08636 12.6883C5.56991 12.6883 5.07251 12.6333 4.59415 12.5232C4.1158 12.4132 3.66919 12.2565 3.25434 12.0533C2.98341 12.2142 2.65745 12.3603 2.27647 12.4915C1.89548 12.6227 1.47215 12.6883 1.0065 12.6883C0.964168 12.6883 0.926069 12.6777 0.892203 12.6566C0.858337 12.6354 0.832938 12.6037 0.816005 12.5613C0.799072 12.5275 0.794839 12.4894 0.803305 12.447C0.811772 12.4047 0.828705 12.3708 0.854104 12.3454C0.862571 12.3454 0.974751 12.21 1.19064 11.939C1.40654 11.6681 1.59915 11.3422 1.76848 10.9612C1.46369 10.631 1.22663 10.2669 1.0573 9.869C0.88797 9.47108 0.803305 9.05623 0.803305 8.62444C0.803305 8.06565 0.943002 7.5365 1.22239 7.03698C1.49332 6.54593 1.86796 6.11626 2.34631 5.74797C2.82467 5.37968 3.38557 5.0897 4.02902 4.87804C4.67247 4.66638 5.35825 4.56055 6.08636 4.56055C6.81447 4.56055 7.50026 4.66638 8.1437 4.87804C8.78715 5.0897 9.34805 5.37968 9.82641 5.74797C10.3048 6.11626 10.6794 6.54593 10.9503 7.03698C11.2297 7.5365 11.3694 8.06565 11.3694 8.62444ZM14.4681 14.2123C14.6375 14.5933 14.8301 14.9192 15.046 15.1902C15.2619 15.4611 15.374 15.5965 15.3825 15.5965C15.4079 15.6304 15.4248 15.6664 15.4333 15.7045C15.4418 15.7426 15.4375 15.7786 15.4206 15.8124C15.4037 15.8548 15.3783 15.8865 15.3444 15.9077C15.3105 15.9289 15.2724 15.9394 15.2301 15.9394C14.7645 15.9394 14.3411 15.8738 13.9601 15.7426C13.5792 15.6114 13.2532 15.4653 12.9823 15.3045C12.5674 15.5076 12.1229 15.6643 11.6488 15.7743C11.1747 15.8844 10.6752 15.9394 10.1502 15.9394C9.59993 15.9394 9.07501 15.8802 8.57549 15.7616C8.07597 15.6346 7.61455 15.4611 7.19123 15.241C6.76791 15.0208 6.39539 14.7584 6.07366 14.4536C5.74347 14.1488 5.48101 13.8144 5.28628 13.4503C5.41328 13.4672 5.54451 13.4799 5.67997 13.4884C5.81543 13.4969 5.9509 13.5011 6.08636 13.5011C6.92454 13.5011 7.71615 13.3741 8.4612 13.1201C9.19778 12.8661 9.84122 12.5169 10.3915 12.0724C10.9419 11.6279 11.3779 11.1093 11.6996 10.5167C12.0213 9.92404 12.1822 9.29329 12.1822 8.62444C12.1822 8.53977 12.1801 8.45511 12.1758 8.37044C12.1716 8.28578 12.161 8.20112 12.1441 8.11645C12.6267 8.26885 13.0712 8.46781 13.4776 8.71334C13.8755 8.96733 14.2205 9.2573 14.5126 9.58326C14.8047 9.90922 15.0311 10.2669 15.192 10.6564C15.3529 11.0458 15.4333 11.4522 15.4333 11.8755C15.4333 12.3073 15.3486 12.7222 15.1793 13.1201C15.01 13.518 14.7729 13.8821 14.4681 14.2123Z" fill="#EEC044"/>
</g>
<defs>
<clipPath id="clip0_4137_1559">
<rect width="14.63" height="20" fill="white" transform="matrix(1 0 0 -1 0.800049 20.25)"/>
</clipPath>
</defs>
</svg>
