<svg width="15" height="14" viewBox="0 0 15 14" fill="none" xmlns="http://www.w3.org/2000/svg">
<g clip-path="url(#clip0_4138_1912)">
<path d="M14.6201 5.22266C14.6657 5.17708 14.7204 5.17025 14.7842 5.20215C14.848 5.23405 14.8799 5.2819 14.8799 5.3457V10.9375C14.8799 11.3021 14.7523 11.612 14.4971 11.8672C14.2419 12.1224 13.932 12.25 13.5674 12.25H2.19238C1.8278 12.25 1.5179 12.1224 1.2627 11.8672C1.00749 11.612 0.879883 11.3021 0.879883 10.9375V5.3457C0.879883 5.2819 0.909505 5.23405 0.96875 5.20215C1.02799 5.17025 1.08496 5.17708 1.13965 5.22266C1.44954 5.45964 1.88249 5.7832 2.43848 6.19336C2.99447 6.60352 3.96973 7.31445 5.36426 8.32617C5.64681 8.53581 6.01595 8.80697 6.47168 9.13965C6.92741 9.47233 7.39681 9.63411 7.87988 9.625C8.37207 9.63411 8.84603 9.47005 9.30176 9.13281C9.75749 8.79557 10.1266 8.52669 10.4092 8.32617C11.8037 7.31445 12.7767 6.60352 13.3281 6.19336C13.8796 5.7832 14.3102 5.45964 14.6201 5.22266ZM7.87988 8.75C7.56087 8.75911 7.20312 8.61328 6.80664 8.3125C6.41016 8.01172 6.09798 7.7793 5.87012 7.61523C4.05631 6.30273 2.91699 5.47103 2.45215 5.12012C1.9873 4.76921 1.54525 4.42969 1.12598 4.10156C1.05306 4.03776 0.993815 3.96029 0.948242 3.86914C0.902669 3.778 0.879883 3.68229 0.879883 3.58203V3.0625C0.879883 2.69792 1.00749 2.38802 1.2627 2.13281C1.5179 1.8776 1.8278 1.75 2.19238 1.75H13.5674C13.932 1.75 14.2419 1.8776 14.4971 2.13281C14.7523 2.38802 14.8799 2.69792 14.8799 3.0625V3.58203C14.8799 3.68229 14.8571 3.778 14.8115 3.86914C14.766 3.96029 14.7067 4.03776 14.6338 4.10156C14.2145 4.42969 13.7725 4.76921 13.3076 5.12012C12.8428 5.47103 11.7035 6.30273 9.88965 7.61523C9.66178 7.7793 9.34961 8.01172 8.95312 8.3125C8.55664 8.61328 8.19889 8.75911 7.87988 8.75Z" fill="white"/>
</g>
<defs>
<clipPath id="clip0_4138_1912">
<rect width="14" height="14" fill="white" transform="matrix(1 0 0 -1 0.879883 14)"/>
</clipPath>
</defs>
</svg>
