<svg width="64" height="65" viewBox="0 0 64 65" fill="none" xmlns="http://www.w3.org/2000/svg">
<path d="M25 25.78C25.8333 25.78 26.5417 25.4884 27.125 24.905C27.7083 24.3217 28 23.6134 28 22.78V21.78H26V22.78C26 23.0717 25.9062 23.3113 25.7188 23.4988C25.5312 23.6863 25.2917 23.78 25 23.78C24.7083 23.78 24.4688 23.6863 24.2812 23.4988C24.0938 23.3113 24 23.0717 24 22.78V21.78H22V22.78C22 23.6134 22.2917 24.3217 22.875 24.905C23.4583 25.4884 24.1667 25.78 25 25.78ZM62 53.78V38.78C62 36.8634 61.3125 35.2175 59.9375 33.8425C58.5625 32.4675 56.9167 31.78 55 31.78H51C49.625 31.78 48.3646 32.155 47.2188 32.905C46.0729 33.655 45.2292 34.6134 44.6875 35.78H34V35.3425L37.3125 33.3425C37.7292 33.1342 38.1146 32.8842 38.4688 32.5925C38.8229 32.3009 39.1667 32.0092 39.5 31.7175L40.875 33.03C41.0833 33.28 41.3438 33.4675 41.6562 33.5925C41.9688 33.7175 42.2917 33.78 42.625 33.78C43.2917 33.78 43.8542 33.5509 44.3125 33.0925C44.7708 32.6342 45.0208 32.0717 45.0625 31.405L46 4.78003C46 3.9467 45.7083 3.23836 45.125 2.65503C44.5417 2.0717 43.8333 1.78003 43 1.78003L16.375 2.71753C15.7083 2.7592 15.1458 3.0092 14.6875 3.46753C14.2292 3.92586 14 4.48836 14 5.15503C14 5.48836 14.0625 5.81128 14.1875 6.12378C14.3125 6.43628 14.4792 6.6967 14.6875 6.90503L16.625 8.84253C15.8333 9.3842 15.1979 10.0925 14.7188 10.9675C14.2396 11.8425 14 12.78 14 13.78C14 15.0717 14.375 16.2279 15.125 17.2488C15.875 18.2696 16.8333 18.9884 18 19.405V20.155C18 21.2384 17.8438 22.3009 17.5312 23.3425C17.2188 24.3842 16.7708 25.3425 16.1875 26.2175L15.6875 26.905L18 29.2175V33.9675C18 34.3009 18.0417 34.6238 18.125 34.9363C18.2083 35.2488 18.3333 35.53 18.5 35.78H14.875C14.6667 34.655 14.1042 33.7071 13.1875 32.9363C12.2708 32.1654 11.2083 31.78 10 31.78C8.79167 31.78 7.72917 32.1654 6.8125 32.9363C5.89583 33.7071 5.33333 34.655 5.125 35.78H2C1.45833 35.78 0.989583 35.9779 0.59375 36.3738C0.197917 36.7696 0 37.2384 0 37.78V39.78C0 40.3217 0.197917 40.7904 0.59375 41.1863C0.989583 41.5821 1.45833 41.78 2 41.78H6V50.655C6 52.905 6.79167 54.8217 8.375 56.405C9.95833 57.9884 11.875 58.78 14.125 58.78C14.4583 58.78 14.7917 58.7592 15.125 58.7175C15.4583 58.6759 15.7708 58.6134 16.0625 58.53L18 58.03V61.78H0V63.78H62V61.78H40V49.4675C40 48.0509 39.75 46.6759 39.25 45.3425C38.75 44.0092 38.0625 42.8217 37.1875 41.78H44V53.78H62ZM46 38.78C46 37.405 46.4896 36.2279 47.4688 35.2488C48.4479 34.2696 49.625 33.78 51 33.78H55C56.375 33.78 57.5521 34.2696 58.5312 35.2488C59.5104 36.2279 60 37.405 60 38.78V51.78H50V41.78H48V51.78H46V38.78ZM36.3125 31.655L34 33.03V30.405L35.75 29.53C35.9167 29.4467 36.0833 29.3529 36.25 29.2488C36.4167 29.1446 36.5625 29.03 36.6875 28.905L38.0625 30.28C37.8125 30.53 37.5312 30.7696 37.2188 30.9988C36.9062 31.2279 36.6042 31.4467 36.3125 31.655ZM43.1875 4.59253L35.0625 24.405L23.375 12.7175L43.1875 4.59253ZM42.3125 31.655L36.625 25.9675L43.875 8.15503L43.0625 31.3425C43.0625 31.5092 42.9688 31.6342 42.7812 31.7175C42.5938 31.8009 42.4375 31.78 42.3125 31.655ZM16 5.15503C16 5.03003 16.0417 4.92586 16.125 4.84253C16.2083 4.7592 16.3125 4.71753 16.4375 4.71753L39.625 3.90503L21.8125 11.155L16.125 5.46753C16.0833 5.42586 16.0521 5.3842 16.0312 5.34253C16.0104 5.30086 16 5.23836 16 5.15503ZM16 13.78C16 13.03 16.1875 12.3425 16.5625 11.7175C16.9375 11.0925 17.4375 10.6134 18.0625 10.28L25.5625 17.78H20C18.9167 17.78 17.9792 17.3842 17.1875 16.5925C16.3958 15.8009 16 14.8634 16 13.78ZM20 20.155V19.78H27.5625L35.25 27.4675C35.2083 27.5092 35.1458 27.5509 35.0625 27.5925C34.9792 27.6342 34.9167 27.6759 34.875 27.7175L32 29.155V38.9675C30.9167 39.1759 29.875 39.4779 28.875 39.8738C27.875 40.2696 26.9167 40.7592 26 41.3425V37.2175L26.9375 37.0925C27.7708 36.9675 28.5417 36.655 29.25 36.155C29.9583 35.655 30.5 35.0092 30.875 34.2175L29.125 33.3425C28.875 33.8009 28.5312 34.1863 28.0938 34.4988C27.6562 34.8113 27.1667 35.0092 26.625 35.0925L22.0625 35.78C21.5208 35.8217 21.0417 35.6654 20.625 35.3113C20.2083 34.9571 20 34.5092 20 33.9675V33.78H22C23.0833 33.78 24.0208 33.3842 24.8125 32.5925C25.6042 31.8009 26 30.8634 26 29.78H24C24 30.3217 23.8021 30.7904 23.4062 31.1863C23.0104 31.5821 22.5417 31.78 22 31.78H20V28.3425L18.25 26.655C18.8333 25.655 19.2708 24.6134 19.5625 23.53C19.8542 22.4467 20 21.3217 20 20.155ZM20.5625 51.78H24V52.78C24 53.8634 23.6042 54.8009 22.8125 55.5925C22.0208 56.3842 21.0833 56.78 20 56.78V55.905C20 55.1967 20.0521 54.4988 20.1562 53.8113C20.2604 53.1238 20.3958 52.4467 20.5625 51.78ZM14.9375 37.78H21.8125C21.8958 37.78 21.9792 37.78 22.0625 37.78C22.1458 37.78 22.2292 37.7592 22.3125 37.7175L24 37.53V39.78H14.375L14.625 39.03C14.7083 38.8217 14.7708 38.6134 14.8125 38.405C14.8542 38.1967 14.8958 37.9884 14.9375 37.78ZM14.1875 41.78H24V42.8425C23.9167 42.9675 23.8229 43.0717 23.7188 43.155C23.6146 43.2384 23.5 43.3217 23.375 43.405L15.0625 47.2175L14.1875 41.78ZM20.5625 46.905C20.3542 47.2384 20.1667 47.5821 20 47.9363C19.8333 48.2904 19.6667 48.6342 19.5 48.9675L18.75 47.7175L20.5625 46.905ZM2 37.78H5.0625C5.10417 37.9884 5.14583 38.1967 5.1875 38.405C5.22917 38.6134 5.29167 38.8217 5.375 39.03L5.625 39.78H2V37.78ZM15.625 56.5925C15.375 56.6759 15.125 56.7279 14.875 56.7488C14.625 56.7696 14.375 56.78 14.125 56.78C12.4167 56.78 10.9688 56.1863 9.78125 54.9988C8.59375 53.8113 8 52.3634 8 50.655V40.5925L7.25 38.405C7.16667 38.155 7.10417 37.8946 7.0625 37.6238C7.02083 37.3529 7 37.0717 7 36.78C7 35.9467 7.29167 35.2384 7.875 34.655C8.45833 34.0717 9.16667 33.78 10 33.78C10.8333 33.78 11.5417 34.0717 12.125 34.655C12.7083 35.2384 13 35.9467 13 36.78C13 37.0717 12.9792 37.3529 12.9375 37.6238C12.8958 37.8946 12.8333 38.155 12.75 38.405L12 40.7175L14 52.9675L16 52.5925L15.4375 49.2175L16.875 48.53L18.625 51.405C18.4167 52.1134 18.2604 52.8529 18.1562 53.6238C18.0521 54.3946 18 55.155 18 55.905V56.03L15.625 56.5925ZM32 53.78H38V55.78H32V53.78ZM32 61.78V57.78H38V61.78H32ZM38 51.78H32V47.78H30V61.78H20V58.78C21.6667 58.78 23.0833 58.1967 24.25 57.03C25.4167 55.8634 26 54.4467 26 52.78V49.78H21.3125C22.3542 47.4884 23.8854 45.53 25.9062 43.905C27.9271 42.28 30.2292 41.2592 32.8125 40.8425C34.4375 41.6759 35.7083 42.8738 36.625 44.4363C37.5417 45.9988 38 47.6759 38 49.4675V51.78ZM34.9375 39.78C34.8125 39.655 34.6667 39.5509 34.5 39.4675C34.3333 39.3842 34.1667 39.28 34 39.155V37.78H44.0625C44.0625 37.9467 44.0521 38.1134 44.0312 38.28C44.0104 38.4467 44 38.6134 44 38.78V39.78H34.9375ZM53 41.78C53.8333 41.78 54.5417 41.4884 55.125 40.905C55.7083 40.3217 56 39.6134 56 38.78C56 37.9467 55.7083 37.2384 55.125 36.655C54.5417 36.0717 53.8333 35.78 53 35.78C52.1667 35.78 51.4583 36.0717 50.875 36.655C50.2917 37.2384 50 37.9467 50 38.78C50 39.6134 50.2917 40.3217 50.875 40.905C51.4583 41.4884 52.1667 41.78 53 41.78ZM53 37.78C53.2917 37.78 53.5312 37.8738 53.7188 38.0613C53.9062 38.2488 54 38.4884 54 38.78C54 39.0717 53.9062 39.3113 53.7188 39.4988C53.5312 39.6863 53.2917 39.78 53 39.78C52.7083 39.78 52.4688 39.6863 52.2812 39.4988C52.0938 39.3113 52 39.0717 52 38.78C52 38.4884 52.0938 38.2488 52.2812 38.0613C52.4688 37.8738 52.7083 37.78 53 37.78Z" fill="#C5CE38"/>
</svg>
