<svg width="65" height="64" viewBox="0 0 65 64" fill="none" xmlns="http://www.w3.org/2000/svg">
<g clip-path="url(#clip0_4138_1521)">
<path d="M60.3604 28.9375L58.7354 22.3125C58.9437 22.2708 59.1208 22.1562 59.2666 21.9688C59.4124 21.7812 59.4854 21.5625 59.4854 21.3125V20.25C59.4854 19.0833 59.0791 18.0938 58.2666 17.2812C57.4541 16.4688 56.4645 16.0625 55.2979 16.0625H47.7354V13.8125C47.7354 13.2708 47.5374 12.7917 47.1416 12.375C46.7458 11.9583 46.2562 11.75 45.6729 11.75H7.23535C6.65202 11.75 6.15202 11.9583 5.73535 12.375C5.31869 12.7917 5.11035 13.2708 5.11035 13.8125V32C5.11035 32.2917 5.21452 32.5312 5.42285 32.7188C5.63119 32.9062 5.86035 33 6.11035 33C6.40202 33 6.6416 32.9062 6.8291 32.7188C7.0166 32.5312 7.11035 32.2917 7.11035 32V13.8125C7.11035 13.8125 7.12077 13.8021 7.1416 13.7812C7.16244 13.7604 7.19369 13.75 7.23535 13.75H45.6729C45.7145 13.75 45.7354 13.7604 45.7354 13.7812C45.7354 13.8021 45.7354 13.8125 45.7354 13.8125V32C45.7354 32.2917 45.8395 32.5312 46.0479 32.7188C46.2562 32.9062 46.4854 33 46.7354 33C47.027 33 47.2666 32.9062 47.4541 32.7188C47.6416 32.5312 47.7354 32.2917 47.7354 32V30.875H59.6104C60.3187 30.875 60.9541 31.0833 61.5166 31.5C62.0791 31.9167 62.4645 32.4583 62.6729 33.125H59.6104C59.3187 33.125 59.0791 33.2292 58.8916 33.4375C58.7041 33.6458 58.6104 33.875 58.6104 34.125V36.25C58.6104 37.125 58.9124 37.875 59.5166 38.5C60.1208 39.125 60.8604 39.4375 61.7354 39.4375H62.8604V43.8125H60.2354C59.8187 42.5625 59.0583 41.5417 57.9541 40.75C56.8499 39.9583 55.6104 39.5625 54.2354 39.5625C52.8604 39.5625 51.6208 39.9583 50.5166 40.75C49.4124 41.5417 48.652 42.5625 48.2354 43.8125H47.7354V36.25C47.7354 36 47.6416 35.7708 47.4541 35.5625C47.2666 35.3542 47.027 35.25 46.7354 35.25C46.4854 35.25 46.2562 35.3542 46.0479 35.5625C45.8395 35.7708 45.7354 36 45.7354 36.25V43.8125H24.9854C24.527 42.5625 23.7562 41.5417 22.6729 40.75C21.5895 39.9583 20.3604 39.5625 18.9854 39.5625C17.5687 39.5625 16.3187 39.9583 15.2354 40.75C14.152 41.5417 13.402 42.5625 12.9854 43.8125H7.23535C7.19369 43.8125 7.16244 43.8125 7.1416 43.8125C7.12077 43.8125 7.11035 43.7917 7.11035 43.75V41.5625H11.4854C11.777 41.5625 12.0166 41.4583 12.2041 41.25C12.3916 41.0417 12.4854 40.8125 12.4854 40.5625C12.4854 40.2708 12.3916 40.0312 12.2041 39.8438C12.0166 39.6562 11.777 39.5625 11.4854 39.5625H1.86035C1.56868 39.5625 1.3291 39.6562 1.1416 39.8438C0.954102 40.0312 0.860352 40.2708 0.860352 40.5625C0.860352 40.8125 0.954102 41.0417 1.1416 41.25C1.3291 41.4583 1.56868 41.5625 1.86035 41.5625H5.11035V43.75C5.11035 44.3333 5.31869 44.8229 5.73535 45.2188C6.15202 45.6146 6.65202 45.8125 7.23535 45.8125H12.6104C12.6104 45.8542 12.6104 45.875 12.6104 45.875C12.6104 47.625 13.2354 49.125 14.4854 50.375C15.7354 51.625 17.2354 52.25 18.9854 52.25C20.7354 52.25 22.2249 51.625 23.4541 50.375C24.6833 49.125 25.2979 47.625 25.2979 45.875C25.2979 45.875 25.2979 45.8542 25.2979 45.8125H47.9229C47.9229 45.8542 47.9124 45.875 47.8916 45.875C47.8708 45.875 47.8604 45.875 47.8604 45.875C47.8604 47.625 48.4854 49.125 49.7354 50.375C50.9854 51.625 52.4854 52.25 54.2354 52.25C55.9854 52.25 57.4854 51.625 58.7354 50.375C59.9854 49.125 60.6104 47.625 60.6104 45.875C60.6104 45.875 60.6104 45.8542 60.6104 45.8125H63.8604C64.152 45.8125 64.3916 45.7188 64.5791 45.5312C64.7666 45.3438 64.8604 45.1042 64.8604 44.8125V34.125C64.8604 32.8333 64.4333 31.6875 63.5791 30.6875C62.7249 29.6875 61.652 29.1042 60.3604 28.9375ZM47.7354 18.0625H55.2979C55.9229 18.0625 56.4437 18.2708 56.8604 18.6875C57.277 19.1042 57.4854 19.625 57.4854 20.25V20.3125H47.7354V18.0625ZM47.7354 28.875V22.3125H56.6729L58.2979 28.875H47.7354ZM18.9854 50.25C17.777 50.25 16.7458 49.8229 15.8916 48.9688C15.0374 48.1146 14.6104 47.0833 14.6104 45.875C14.6104 44.7083 15.0374 43.6979 15.8916 42.8438C16.7458 41.9896 17.777 41.5625 18.9854 41.5625C20.152 41.5625 21.1624 41.9896 22.0166 42.8438C22.8708 43.6979 23.2979 44.7083 23.2979 45.875C23.2979 47.0833 22.8708 48.1146 22.0166 48.9688C21.1624 49.8229 20.152 50.25 18.9854 50.25ZM54.2354 50.25C53.027 50.25 52.0062 49.8229 51.1729 48.9688C50.3395 48.1146 49.9229 47.0833 49.9229 45.875C49.9229 44.7083 50.3395 43.6979 51.1729 42.8438C52.0062 41.9896 53.027 41.5625 54.2354 41.5625C55.4437 41.5625 56.4749 41.9896 57.3291 42.8438C58.1833 43.6979 58.6104 44.7083 58.6104 45.875C58.6104 47.0833 58.1833 48.1146 57.3291 48.9688C56.4749 49.8229 55.4437 50.25 54.2354 50.25ZM62.8604 37.4375H61.7354C61.402 37.4375 61.1312 37.3229 60.9229 37.0938C60.7145 36.8646 60.6104 36.5833 60.6104 36.25V35.125H62.8604V37.4375ZM18.9854 43.8125C18.402 43.8125 17.9124 44.0208 17.5166 44.4375C17.1208 44.8542 16.9229 45.3333 16.9229 45.875C16.9229 46.4583 17.1208 46.9479 17.5166 47.3438C17.9124 47.7396 18.402 47.9375 18.9854 47.9375C19.527 47.9375 20.0062 47.7396 20.4229 47.3438C20.8395 46.9479 21.0479 46.4583 21.0479 45.875C21.0479 45.3333 20.8395 44.8542 20.4229 44.4375C20.0062 44.0208 19.527 43.8125 18.9854 43.8125ZM54.2354 43.8125C53.652 43.8125 53.1624 44.0208 52.7666 44.4375C52.3708 44.8542 52.1729 45.3333 52.1729 45.875C52.1729 46.4583 52.3708 46.9479 52.7666 47.3438C53.1624 47.7396 53.652 47.9375 54.2354 47.9375C54.8187 47.9375 55.3083 47.7396 55.7041 47.3438C56.0999 46.9479 56.2979 46.4583 56.2979 45.875C56.2979 45.3333 56.0999 44.8542 55.7041 44.4375C55.3083 44.0208 54.8187 43.8125 54.2354 43.8125ZM42.4854 39.5625H27.4854C27.2354 39.5625 27.0062 39.6562 26.7979 39.8438C26.5895 40.0312 26.4854 40.2708 26.4854 40.5625C26.4854 40.8125 26.5895 41.0417 26.7979 41.25C27.0062 41.4583 27.2354 41.5625 27.4854 41.5625H42.4854C42.777 41.5625 43.0166 41.4583 43.2041 41.25C43.3916 41.0417 43.4854 40.8125 43.4854 40.5625C43.4854 40.2708 43.3916 40.0312 43.2041 39.8438C43.0166 39.6562 42.777 39.5625 42.4854 39.5625ZM16.7979 35.25H3.98535C3.73535 35.25 3.50618 35.3542 3.29785 35.5625C3.08952 35.7708 2.98535 36 2.98535 36.25C2.98535 36.5417 3.08952 36.7812 3.29785 36.9688C3.50618 37.1562 3.73535 37.25 3.98535 37.25H16.7979C17.0895 37.25 17.3291 37.1562 17.5166 36.9688C17.7041 36.7812 17.7979 36.5417 17.7979 36.25C17.7979 36 17.7041 35.7708 17.5166 35.5625C17.3291 35.3542 17.0895 35.25 16.7979 35.25ZM35.7354 21.6875C35.527 21.4792 35.2874 21.375 35.0166 21.375C34.7458 21.375 34.5062 21.4792 34.2979 21.6875L25.3604 30.5625L20.7354 25.9375C20.527 25.7292 20.2874 25.625 20.0166 25.625C19.7458 25.625 19.5062 25.7292 19.2979 25.9375C19.1312 26.1458 19.0479 26.3854 19.0479 26.6562C19.0479 26.9271 19.1312 27.1667 19.2979 27.375L24.6729 32.6875C24.7562 32.8125 24.8604 32.8958 24.9854 32.9375C25.1104 32.9792 25.2354 33 25.3604 33C25.4854 33 25.6104 32.9792 25.7354 32.9375C25.8604 32.8958 25.9854 32.8125 26.1104 32.6875L35.7354 23.0625C35.902 22.8958 35.9854 22.6667 35.9854 22.375C35.9854 22.0833 35.902 21.8542 35.7354 21.6875Z" fill="#4BAF47"/>
</g>
<defs>
<clipPath id="clip0_4138_1521">
<rect width="64" height="64" fill="white" transform="matrix(1 0 0 -1 0.860352 64)"/>
</clipPath>
</defs>
</svg>
