<svg width="14" height="14" viewBox="0 0 14 14" fill="none" xmlns="http://www.w3.org/2000/svg">
<path d="M4.375 0C3.77344 0 3.20378 0.113933 2.66602 0.341797C2.13737 0.569661 1.6748 0.881836 1.27832 1.27832C0.881836 1.6748 0.569661 2.13737 0.341797 2.66602C0.113932 3.20378 0 3.77344 0 4.375C0 5.46875 0.227865 6.58529 0.683594 7.72461C1.13932 8.86393 1.64062 9.89844 2.1875 10.8281C2.73438 11.7578 3.23568 12.5189 3.69141 13.1113C4.14714 13.7038 4.375 14 4.375 14C4.375 14 4.60286 13.7038 5.05859 13.1113C5.51432 12.5189 6.01562 11.7578 6.5625 10.8281C7.10938 9.89844 7.61068 8.86393 8.06641 7.72461C8.52214 6.58529 8.75 5.46875 8.75 4.375C8.75 3.77344 8.63607 3.20378 8.4082 2.66602C8.18034 2.13737 7.86816 1.6748 7.47168 1.27832C7.0752 0.881836 6.61263 0.569661 6.08398 0.341797C5.54622 0.113933 4.97656 0 4.375 0ZM4.375 7C3.64583 7 3.02604 6.74479 2.51562 6.23438C2.00521 5.72396 1.75 5.10417 1.75 4.375C1.75 3.64583 2.00521 3.02604 2.51562 2.51562C3.02604 2.00521 3.64583 1.75 4.375 1.75C5.10417 1.75 5.72396 2.00521 6.23438 2.51562C6.74479 3.02604 7 3.64583 7 4.375C7 5.10417 6.74479 5.72396 6.23438 6.23438C5.72396 6.74479 5.10417 7 4.375 7Z" fill="white"/>
</svg>
