<svg width="25" height="25" viewBox="0 0 25 25" fill="none" xmlns="http://www.w3.org/2000/svg">
<g clip-path="url(#clip0_4138_1963)">
<path d="M7.32927 16.2969H20.5715C21.3215 16.2969 21.9621 16.0312 22.4933 15.5C23.0246 14.9688 23.2902 14.3281 23.2902 13.5781V8.02344C23.2902 8.02344 23.2902 8.01953 23.2902 8.01172C23.2902 8.00391 23.2902 8 23.2902 8C23.2902 7.98438 23.2902 7.97656 23.2902 7.97656C23.2902 7.97656 23.2902 7.96875 23.2902 7.95312C23.2902 7.95312 23.2902 7.94922 23.2902 7.94141C23.2902 7.93359 23.2902 7.92969 23.2902 7.92969C23.2902 7.92969 23.2863 7.92578 23.2785 7.91797C23.2707 7.91016 23.2668 7.89844 23.2668 7.88281C23.2668 7.88281 23.2668 7.87891 23.2668 7.87109C23.2668 7.86328 23.2668 7.85938 23.2668 7.85938C23.2668 7.85938 23.2668 7.85547 23.2668 7.84766C23.2668 7.83984 23.2668 7.83594 23.2668 7.83594C23.2668 7.82031 23.2629 7.8125 23.2551 7.8125C23.2472 7.8125 23.2433 7.80469 23.2433 7.78906C23.2433 7.78906 23.2433 7.78516 23.2433 7.77734C23.2433 7.76953 23.2433 7.76562 23.2433 7.76562C23.2433 7.76562 23.2394 7.76172 23.2316 7.75391C23.2238 7.74609 23.2199 7.74219 23.2199 7.74219C23.2199 7.72656 23.2199 7.71875 23.2199 7.71875C23.2043 7.70312 23.1965 7.69531 23.1965 7.69531C23.1965 7.69531 23.1965 7.6875 23.1965 7.67188C23.1965 7.67188 23.1886 7.66406 23.173 7.64844C23.173 7.64844 23.173 7.64453 23.173 7.63672C23.173 7.62891 23.173 7.625 23.173 7.625C23.1574 7.625 23.1496 7.62109 23.1496 7.61328C23.1496 7.60547 23.1496 7.60156 23.1496 7.60156C23.1496 7.60156 23.1457 7.59766 23.1379 7.58984C23.1301 7.58203 23.1261 7.57812 23.1261 7.57812C23.1261 7.57812 23.1222 7.57422 23.1144 7.56641C23.1066 7.55859 23.1027 7.55469 23.1027 7.55469C23.1027 7.55469 23.0988 7.55078 23.091 7.54297C23.0832 7.53516 23.0793 7.53125 23.0793 7.53125C23.0793 7.53125 23.0754 7.52734 23.0676 7.51953C23.0597 7.51172 23.0558 7.50781 23.0558 7.50781C23.0558 7.50781 23.0519 7.50391 23.0441 7.49609C23.0363 7.48828 23.0324 7.48438 23.0324 7.48438C23.0324 7.48438 23.0285 7.48047 23.0207 7.47266C23.0129 7.46484 23.009 7.46094 23.009 7.46094C22.9933 7.46094 22.9855 7.46094 22.9855 7.46094C22.9699 7.46094 22.9621 7.45703 22.9621 7.44922C22.9621 7.44141 22.9543 7.4375 22.9386 7.4375C22.9386 7.4375 22.9386 7.43359 22.9386 7.42578C22.9386 7.41797 22.9308 7.41406 22.9152 7.41406C22.9152 7.41406 22.9113 7.41406 22.9035 7.41406C22.8957 7.41406 22.8918 7.41406 22.8918 7.41406C22.8918 7.39844 22.8879 7.39062 22.8801 7.39062C22.8722 7.39062 22.8683 7.39062 22.8683 7.39062C22.8527 7.39062 22.8449 7.39062 22.8449 7.39062C22.8449 7.39062 22.8371 7.39062 22.8215 7.39062C22.8215 7.375 22.8176 7.36719 22.8097 7.36719C22.8019 7.36719 22.798 7.36719 22.798 7.36719C22.798 7.36719 22.7941 7.36719 22.7863 7.36719C22.7785 7.36719 22.7746 7.36719 22.7746 7.36719C22.7746 7.36719 22.7707 7.36719 22.7629 7.36719C22.7551 7.36719 22.7433 7.36719 22.7277 7.36719C22.7277 7.36719 22.7277 7.36328 22.7277 7.35547C22.7277 7.34766 22.7199 7.34375 22.7043 7.34375L5.94646 5.04688V2.70312C5.94646 2.6875 5.94646 2.67578 5.94646 2.66797C5.94646 2.66016 5.94646 2.64844 5.94646 2.63281C5.94646 2.63281 5.94646 2.625 5.94646 2.60938C5.94646 2.60938 5.94646 2.60547 5.94646 2.59766C5.94646 2.58984 5.94646 2.57812 5.94646 2.5625C5.93084 2.5625 5.92302 2.55859 5.92302 2.55078C5.92302 2.54297 5.92302 2.53906 5.92302 2.53906C5.92302 2.52344 5.92302 2.51562 5.92302 2.51562C5.92302 2.5 5.92302 2.48828 5.92302 2.48047C5.92302 2.47266 5.91521 2.46875 5.89959 2.46875C5.89959 2.46875 5.89959 2.46484 5.89959 2.45703C5.89959 2.44922 5.89959 2.44531 5.89959 2.44531C5.89959 2.42969 5.89959 2.42188 5.89959 2.42188C5.89959 2.42188 5.89177 2.41406 5.87615 2.39844C5.87615 2.39844 5.87615 2.39453 5.87615 2.38672C5.87615 2.37891 5.87615 2.375 5.87615 2.375C5.87615 2.375 5.87224 2.37109 5.86443 2.36328C5.85662 2.35547 5.85271 2.35156 5.85271 2.35156C5.85271 2.35156 5.85271 2.34766 5.85271 2.33984C5.85271 2.33203 5.8449 2.32812 5.82927 2.32812C5.82927 2.32812 5.82927 2.32422 5.82927 2.31641C5.82927 2.30859 5.82927 2.30469 5.82927 2.30469C5.82927 2.30469 5.82537 2.30078 5.81755 2.29297C5.80974 2.28516 5.80584 2.28125 5.80584 2.28125C5.80584 2.28125 5.80193 2.27734 5.79412 2.26953C5.7863 2.26172 5.7824 2.25781 5.7824 2.25781C5.7824 2.25781 5.77849 2.25391 5.77068 2.24609C5.76287 2.23828 5.75896 2.23438 5.75896 2.23438C5.75896 2.23438 5.75896 2.23047 5.75896 2.22266C5.75896 2.21484 5.75115 2.21094 5.73552 2.21094C5.73552 2.21094 5.73162 2.20703 5.7238 2.19922C5.71599 2.19141 5.71209 2.1875 5.71209 2.1875C5.71209 2.1875 5.70818 2.18359 5.70037 2.17578C5.69255 2.16797 5.68865 2.16406 5.68865 2.16406C5.68865 2.16406 5.68474 2.16406 5.67693 2.16406C5.66912 2.16406 5.66521 2.15625 5.66521 2.14062C5.64959 2.14062 5.63787 2.13672 5.63005 2.12891C5.62224 2.12109 5.61834 2.11719 5.61834 2.11719C5.60271 2.10156 5.58709 2.09375 5.57146 2.09375C5.55584 2.09375 5.54802 2.08594 5.54802 2.07031L1.91521 0.546875C1.74334 0.484375 1.57146 0.488281 1.39959 0.558594C1.22771 0.628906 1.10271 0.742188 1.02459 0.898438C0.962086 1.07031 0.965993 1.24219 1.03631 1.41406C1.10662 1.58594 1.22771 1.71094 1.39959 1.78906L4.61052 3.14844V17.7266C4.61052 18.4141 4.84099 19.0156 5.30193 19.5312C5.76287 20.0469 6.32146 20.3438 6.97771 20.4219C6.86834 20.625 6.77849 20.8438 6.70818 21.0781C6.63787 21.3125 6.60271 21.5547 6.60271 21.8047C6.60271 22.5547 6.86443 23.1914 7.38787 23.7148C7.9113 24.2383 8.54802 24.5 9.29802 24.5C10.0324 24.5 10.6613 24.2383 11.1847 23.7148C11.7082 23.1914 11.9699 22.5547 11.9699 21.8047C11.9699 21.5703 11.9386 21.3359 11.8761 21.1016C11.8136 20.8672 11.7277 20.6484 11.6183 20.4453H17.5949C17.4855 20.6484 17.3957 20.8672 17.3254 21.1016C17.2551 21.3359 17.2199 21.5703 17.2199 21.8047C17.2199 22.5547 17.4855 23.1914 18.0168 23.7148C18.548 24.2383 19.1808 24.5 19.9152 24.5C20.6496 24.5 21.2824 24.2383 21.8136 23.7148C22.3449 23.1914 22.6105 22.5547 22.6105 21.8047C22.6105 21.0703 22.3449 20.4414 21.8136 19.918C21.2824 19.3945 20.6496 19.1328 19.9152 19.1328H7.32927C6.95427 19.1328 6.63005 18.9961 6.35662 18.7227C6.08318 18.4492 5.94646 18.1172 5.94646 17.7266V15.9219C6.14959 16.0469 6.36834 16.1406 6.60271 16.2031C6.83709 16.2656 7.07927 16.2969 7.32927 16.2969ZM10.6574 21.8047C10.6574 22.1797 10.5246 22.5 10.259 22.7656C9.99334 23.0312 9.67302 23.1641 9.29802 23.1641C8.92302 23.1641 8.60271 23.0312 8.33709 22.7656C8.07146 22.5 7.93865 22.1797 7.93865 21.8047C7.93865 21.4297 8.07146 21.1094 8.33709 20.8438C8.60271 20.5781 8.92302 20.4453 9.29802 20.4453C9.67302 20.4453 9.99334 20.5781 10.259 20.8438C10.5246 21.1094 10.6574 21.4297 10.6574 21.8047ZM21.2746 21.8047C21.2746 22.1797 21.1418 22.5 20.8761 22.7656C20.6105 23.0312 20.2902 23.1641 19.9152 23.1641C19.5402 23.1641 19.2199 23.0312 18.9543 22.7656C18.6886 22.5 18.5558 22.1797 18.5558 21.8047C18.5558 21.4297 18.6886 21.1094 18.9543 20.8438C19.2199 20.5781 19.5402 20.4453 19.9152 20.4453C20.2902 20.4453 20.6105 20.5781 20.8761 20.8438C21.1418 21.1094 21.2746 21.4297 21.2746 21.8047ZM20.5715 14.9609H7.32927C6.95427 14.9609 6.63005 14.8281 6.35662 14.5625C6.08318 14.2969 5.94646 13.9688 5.94646 13.5781V6.38281L21.9543 8.58594V13.5781C21.9543 13.9688 21.8176 14.2969 21.5441 14.5625C21.2707 14.8281 20.9465 14.9609 20.5715 14.9609Z" fill="#1F1E17"/>
</g>
<defs>
<clipPath id="clip0_4138_1963">
<rect width="24" height="24" fill="white" transform="matrix(1 0 0 -1 0.980469 24.5)"/>
</clipPath>
</defs>
</svg>
