<svg width="25" height="25" viewBox="0 0 25 25" fill="none" xmlns="http://www.w3.org/2000/svg">
<g clip-path="url(#clip0_4138_1960)">
<path d="M24.7695 23.2812L18.9336 17.4453C19.7148 16.5391 20.3281 15.5156 20.7734 14.375C21.2188 13.2344 21.4414 12.0234 21.4414 10.7422C21.4414 9.32031 21.1758 7.99219 20.6445 6.75781C20.1133 5.50781 19.3828 4.42188 18.4531 3.5C17.5234 2.57812 16.4336 1.84375 15.1836 1.29688C13.9492 0.765625 12.6289 0.5 11.2227 0.5C9.80078 0.5 8.47266 0.765625 7.23828 1.29688C5.98828 1.84375 4.90234 2.57812 3.98047 3.5C3.05859 4.42188 2.32422 5.50781 1.77734 6.75781C1.24609 7.99219 0.980469 9.32031 0.980469 10.7422C0.980469 12.1484 1.24609 13.4688 1.77734 14.7031C2.32422 15.9531 3.05859 17.0391 3.98047 17.9609C4.90234 18.8828 5.98828 19.6172 7.23828 20.1641C8.47266 20.6953 9.80078 20.9609 11.2227 20.9609C12.5039 20.9609 13.7148 20.7383 14.8555 20.293C15.9961 19.8477 17.0195 19.2344 17.9258 18.4531L23.7617 24.2891C23.8242 24.3516 23.9023 24.4023 23.9961 24.4414C24.0898 24.4805 24.1758 24.5 24.2539 24.5C24.3477 24.5 24.4414 24.4844 24.5352 24.4531C24.6289 24.4219 24.707 24.3672 24.7695 24.2891C24.9102 24.1484 24.9805 23.9805 24.9805 23.7852C24.9805 23.5898 24.9102 23.4219 24.7695 23.2812ZM2.41016 10.7422C2.41016 9.52344 2.64453 8.38281 3.11328 7.32031C3.56641 6.24219 4.19141 5.30469 4.98828 4.50781C5.78516 3.71094 6.72266 3.08594 7.80078 2.63281C8.86328 2.16406 10.0039 1.92969 11.2227 1.92969C12.4258 1.92969 13.5664 2.16406 14.6445 2.63281C15.707 3.08594 16.6367 3.71094 17.4336 4.50781C18.2305 5.30469 18.8555 6.24219 19.3086 7.32031C19.7773 8.38281 20.0117 9.52344 20.0117 10.7422C20.0117 11.9453 19.7773 13.0859 19.3086 14.1641C18.8555 15.2266 18.2305 16.1562 17.4336 16.9531C16.6367 17.75 15.707 18.3828 14.6445 18.8516C13.5664 19.3047 12.4258 19.5312 11.2227 19.5312C10.0039 19.5312 8.86328 19.3047 7.80078 18.8516C6.72266 18.3828 5.78516 17.75 4.98828 16.9531C4.19141 16.1562 3.56641 15.2266 3.11328 14.1641C2.64453 13.0859 2.41016 11.9453 2.41016 10.7422Z" fill="#1F1E17"/>
</g>
<defs>
<clipPath id="clip0_4138_1960">
<rect width="24" height="24" fill="white" transform="matrix(1 0 0 -1 0.980469 24.5)"/>
</clipPath>
</defs>
</svg>
